<svg width="231" height="343" fill="none" xmlns="http://www.w3.org/2000/svg"><path d="M223.925 324.424v-6.5h2.5l.5 8.5c-.5 1.5-2.5 2.5-4.5 4s-2-2-1.5-2c.4 0 2.166-2.666 3-4Z" stroke="#000" stroke-width="2"/><path d="M223.925 328.424v-6.5h2.5l.5 8.5c-.5 1.5-2.5 2.5-4.5 4s-2-2-1.5-2c.4 0 2.166-2.666 3-4Z" fill="#fff" stroke="#000" stroke-width="2"/><path d="M223.647 332.924v-6.5h2.5l.5 8.5c-.5 1.5-2.5 2.5-4.5 4s-2-2-1.5-2c.4 0 2.166-2.666 3-4Z" fill="#fff" stroke="#000" stroke-width="2"/><path d="M226.647 302.924c1.2-9.2-11.5-91-18-132-5.167 2.834-14.9 8.7-12.5 9.5 2.4.8 12.667 81.667 17.5 123l-3.5 14.5v12c.5 1.167 1.5 3 4 0l.045-.159c.99-3.462 2.111-7.386 1.455-10.341l6.5 3c1.333 3.334 3.5 8.5 3.5 10 0 .895-.833 4.334-.5 7.5.667 1 1 2 2.5.5 1.275-1.275 2-6.333 2-9v-12l-3-16.5Z" fill="#fff" stroke="#000" stroke-width="2"/><path d="M210.647 167.424c3.2-7.2-14-31.333-23-42.5l2.5 57c5.5-1.833 17.3-7.3 20.5-14.5ZM37.647 166.924c0 2.561-1.834 9.167-1 14 1 3.5 21.5 48 28 46 5.2-1.6 16.666-38.666 21-57.5 5.166-8.166 20.5-17.5 13.5 7-7.088 24.807-24.5 66.5-28 68s-7 1-7.5 1c-8.616 0-30.667-38.166-40.5-58-7-3.5-15-16-21.5-21-1.773-1.363.5-4 2-3 2.5 1.667 5.5 5 8.5 7 .865.577 2.5 0 2-1.5-5-7.5-9.6-12.9-10-14.5-.4-1.6 1-3.25 2.5-2.5 1 .5 11.12 14.127 11.5 14 1.5-.5 1.5-.5 1.5-1.5 0-1.414-10-15.5-11-17.5s2.5-3.5 3.5-2.5 6 11 11 17.5c.753.979 2 .763 2-1.5 0-1-2.5-7-6.5-14.5-.5-2.5 2-3.5 3.5-2 .633.949 4.5 8 7 14.173 1.735 2.933 3.171 4.984 3.5 4.327 1-2 2.542-10.042 4-11.5 2.5-2.5 7-1.5 4.5 1s-3.5 10.5-3.5 15Z" fill="#fff" stroke="#000" stroke-width="2"/><path d="M79.647 167.924c-2.8-4 15.833-31.666 29-45l-4 42c0 4.5.5 12.563-3.5 13-4 .438-16.12-2.315-21.5-10ZM137.147 89.924v25.5c5.167 2.667 15.9 5.3 17.5.5 1.6-4.8.667-21.166 0-26h-17.5Z" fill="#fff" stroke="#000" stroke-width="2"/><path d="M110.647 116.924c-12 12-10.314 153.243-8.147 218.076l90.5-14c-3-67.833-3.186-200.381-6.353-204.076-2.622-3.058-13.595-6.061-27.5-7.5-3 4.246-9.123 4.586-13 4.5-4.061-.09-9.5-.359-12-4.5-10.17.859-18.664 2.664-23.5 7.5Z" fill="#fff" stroke="#000" stroke-width="2" stroke-linecap="round" stroke-linejoin="round"/><path d="M179.147 46.424c-1.6-1.2-3.667 1.834-4.5 3.5-.5 3.667-1.4 11.8-1 15 .5 4 3.5 2.5 3.5 0s3-8.5 3.5-10 .5-7-1.5-8.5ZM112.147 48.198c1.6-1.2 2.944 1.833 3.778 3.5.5 3.667 1.4 11.8 1 15-.5 4-3.5 2.5-3.5 0s-2.278-7.774-2.778-9.274c-.286-.857.722-4 0-6.5 0-1.774.643-2.084 1.5-2.726Z" fill="#fff" stroke="#000" stroke-width="2"/><path d="M144.338 98.841c-7.2 0-20.5-8-24-13-3.857-5.51-8.433-58.72-4.5-61.5 21.809-15.417 35.809-14.417 57.809.583 4.4 3 .191 58.917-3.809 62.917s-16.232 11-19 11h-6.5Z" fill="#fff" stroke="#000" stroke-width="2" stroke-linejoin="round"/><path d="M125.647 47.47c2.166-1.166 7.7-2.8 12.5 0M151.647 47.47c2.166-1.166 7.7-2.8 12.5 0" stroke="#000" stroke-width="2" stroke-linecap="round"/><path d="M132.647 80.924s3.5 4.5 12.5 4.5 12.5-4.5 12.5-4.5M144.197 53.924c-1.333 5.5-3.6 16.8-2 18 1.6 1.2 4 .5 5 0" stroke="#000" stroke-width="2" stroke-linecap="round" stroke-linejoin="round"/><path d="M114.647 51.424c0-5.166 1.508-13.187 4-19 1.5-3.5 5-9.5 7.5-6 9.916-5.5 21.5-6 32-6 5.5 1.5 6.5 2 9.5 4 3.721 2.48 6.5 16 8 24.5 1-11.5 1.619-19.117 0-26-2-8.5-3.696-11.246-7-14-3-2.5-5-2-8 1-.5-4.5 3.5-6.5-6.5-8.5-2.5-.5-11.5-.93-10 1-5.5-.5-10.091.48-8 2-7 .5-10.765 3.783-9 4.5-5 1.078-9.183 4.87-7.5 5.5-4 3-5.215 6.5-6 12-1.071 7.5-.834 17 1 25Z" fill="#fff" stroke="#000" stroke-width="2" stroke-linecap="round" stroke-linejoin="round"/></svg>